<svg width="36" height="36" viewBox="0 0 36 36" fill="none" xmlns="http://www.w3.org/2000/svg">
  <path d="M32 9.5c-1.2.7-2.5 1.2-3.9 1.4a6.6 6.6 0 0 0 2.9-3.6c-1.3.8-2.8 1.3-4.3 1.6a6.7 6.7 0 0 0-11.5 6.1A19.1 19.1 0 0 1 5.4 7.9a6.7 6.7 0 0 0 2.1 8.9c-1.1 0-2.1-.3-3-.8v.1a6.7 6.7 0 0 0 5.4 6.6c-1 .3-2.1.3-3.1.1a6.7 6.7 0 0 0 6.3 4.7A13.5 13.5 0 0 1 3 30.1a19 19 0 0 0 10.3 3c12.4 0 19.1-10.3 19.1-19.1v-.9c1.3-.9 2.4-2.1 3.3-3.4-1.2.5-2.5.9-3.7 1z" stroke="currentColor" stroke-width="1.6" stroke-linejoin="round"/>
</svg>
